<?xml version="1.0" standalone="no"?>
<!DOCTYPE svg PUBLIC "-//W3C//DTD SVG 20010904//EN"
 "http://www.w3.org/TR/2001/REC-SVG-20010904/DTD/svg10.dtd">
<svg version="1.0" xmlns="http://www.w3.org/2000/svg"
 width="300.000000pt" height="278.000000pt" viewBox="0 0 300.000000 278.000000"
 preserveAspectRatio="xMidYMid meet">

<g transform="translate(0.000000,278.000000) scale(0.100000,-0.100000)"
fill="#000000" stroke="none">
<path d="M1330 2769 c-377 -47 -684 -247 -755 -493 -24 -83 -17 -258 14 -337
83 -216 307 -376 623 -446 129 -28 478 -25 607 5 204 49 340 119 456 236 123
124 175 242 175 401 0 146 -46 251 -160 365 -121 120 -298 207 -508 251 -113
23 -339 33 -452 18z m455 -58 c50 -10 129 -33 177 -51 86 -31 209 -98 215
-117 7 -20 -119 -48 -217 -47 -97 0 -97 0 -267 66 -45 18 -79 23 -153 23 -98
0 -100 -1 -215 -62 -31 -17 -165 -43 -215 -43 -54 1 -266 61 -264 75 2 13 106
70 184 100 85 32 207 63 295 75 108 14 356 4 460 -19z m-58 -205 c48 -20 113
-41 143 -47 77 -16 191 -6 285 26 l80 27 56 -60 c57 -60 109 -153 112 -199 2
-23 -4 -27 -73 -45 -89 -23 -172 -50 -257 -84 l-62 -25 -188 160 c-207 177
-248 202 -312 183 -21 -7 -75 -39 -121 -72 -70 -51 -90 -60 -125 -60 -76 0
-73 18 15 107 110 111 163 135 287 128 52 -2 95 -13 160 -39z m-755 -41 c99
-27 179 -32 241 -14 22 6 41 9 43 6 2 -2 -18 -30 -46 -61 -42 -48 -48 -60 -40
-76 15 -29 47 -42 102 -43 39 -1 57 5 93 31 25 18 64 46 88 63 24 17 61 33 83
36 36 5 46 0 111 -48 39 -30 137 -112 217 -182 128 -112 147 -132 144 -155 -2
-16 -13 -32 -30 -42 -34 -18 -47 -12 -142 73 -96 86 -105 65 -13 -31 42 -44
77 -86 77 -91 0 -17 -38 -51 -57 -52 -37 -3 -50 4 -103 57 -31 30 -59 54 -63
54 -18 0 -3 -26 43 -77 28 -30 50 -61 50 -68 0 -17 -38 -45 -61 -45 -9 0 -24
9 -35 21 -31 34 -94 82 -101 76 -3 -4 14 -29 37 -57 35 -41 40 -54 29 -61 -19
-12 -53 -11 -81 1 -20 9 -23 17 -20 53 4 52 -22 90 -73 107 -19 6 -35 18 -35
25 0 48 -52 95 -105 95 -14 0 -39 10 -55 21 -23 18 -38 21 -82 17 -37 -4 -59
-1 -75 9 -15 10 -34 13 -55 9 -57 -12 -71 -10 -153 27 -44 20 -129 48 -189 63
-60 16 -110 34 -113 41 -10 27 67 163 127 224 l58 59 46 -20 c25 -10 88 -31
138 -45z m-247 -304 c61 -16 143 -44 183 -61 72 -33 72 -33 72 -72 0 -47 43
-98 84 -98 16 0 27 -7 31 -20 9 -29 54 -60 87 -60 16 0 31 -6 35 -15 7 -20 55
-45 84 -45 12 0 37 -13 56 -30 42 -37 95 -43 138 -16 16 10 26 10 50 0 44 -19
89 -17 118 6 14 11 32 17 40 14 22 -8 82 23 96 49 7 13 22 23 38 24 31 1 74
31 90 63 6 13 29 29 50 36 53 18 76 49 71 96 l-4 38 86 31 c76 27 253 79 273
79 14 0 7 -78 -13 -141 -42 -134 -159 -252 -334 -338 -165 -82 -345 -121 -556
-121 -477 0 -881 244 -898 543 -2 37 0 67 4 67 5 0 59 -13 119 -29z m368 -80
c14 -6 28 -19 32 -31 l6 -20 26 20 c14 11 35 20 47 20 28 0 66 -27 66 -47 0
-11 6 -13 23 -8 67 22 113 -12 102 -75 l-6 -36 39 4 c33 3 42 0 61 -23 29 -37
27 -61 -9 -97 -25 -24 -36 -29 -58 -24 -32 8 -62 40 -62 67 0 16 -3 18 -19 9
-44 -23 -101 1 -101 42 0 21 -4 22 -31 8 -14 -8 -27 -7 -48 4 -31 17 -41 34
-41 74 0 20 -3 23 -12 14 -18 -18 -56 -14 -78 8 -26 26 -25 46 5 75 28 29 26
28 58 16z"/>
<path d="M2465 1255 c-21 -20 -25 -34 -25 -84 l0 -60 -36 21 c-61 36 -149 23
-196 -29 -31 -34 -49 -93 -50 -164 -1 -136 67 -209 196 -209 76 0 137 28 168
78 22 35 23 48 26 255 l3 217 -31 0 c-19 0 -40 -9 -55 -25z m-56 -214 c46 -46
49 -149 6 -199 -27 -32 -83 -36 -114 -8 -46 42 -51 148 -10 200 26 33 89 36
118 7z"/>
<path d="M117 1146 c-49 -18 -64 -32 -88 -77 -16 -33 -19 -60 -19 -184 l0
-145 44 0 44 0 4 141 c3 134 4 142 27 160 32 26 67 24 96 -6 24 -23 25 -29 25
-160 l0 -135 45 0 45 0 0 119 c0 133 10 173 46 190 35 16 47 14 78 -10 26 -20
26 -21 26 -160 l0 -139 51 0 50 0 -3 148 c-2 119 -7 154 -22 184 -42 86 -169
111 -248 48 -25 -19 -26 -19 -43 0 -17 19 -74 40 -105 40 -8 -1 -32 -7 -53
-14z"/>
<path d="M789 1150 c-54 -10 -102 -44 -129 -92 -20 -35 -24 -57 -24 -118 0
-139 57 -202 189 -208 58 -3 80 0 113 17 35 18 82 67 82 85 0 13 -109 5 -139
-10 -59 -29 -141 10 -141 67 0 18 10 19 145 19 l145 0 0 45 c0 133 -107 220
-241 195z m90 -95 c28 -14 41 -33 41 -61 0 -11 -19 -14 -91 -14 -89 0 -90 0
-84 23 9 32 52 67 81 67 14 0 38 -7 53 -15z"/>
<path d="M1249 1150 c-59 -10 -79 -21 -117 -64 -38 -44 -52 -107 -52 -241 l0
-105 55 0 55 0 0 126 c0 125 0 126 29 155 22 21 39 29 66 29 l36 0 -3 52 c-2
28 -7 52 -13 53 -5 2 -31 -1 -56 -5z"/>
<path d="M1525 1154 c-5 -1 -27 -5 -47 -9 -85 -14 -137 -95 -138 -211 0 -134
66 -204 192 -204 66 0 113 17 145 51 26 28 55 94 46 103 -4 3 -28 6 -55 6 -37
0 -50 -4 -55 -17 -17 -49 -75 -69 -123 -43 -38 20 -52 121 -26 184 27 64 117
71 144 10 10 -21 18 -24 67 -24 62 0 64 4 36 67 -14 29 -31 48 -58 61 -36 18
-106 32 -128 26z"/>
<path d="M1884 1149 c-49 -11 -91 -53 -100 -97 l-6 -32 51 0 c28 0 51 4 51 9
0 21 34 41 70 41 22 0 45 -7 54 -16 34 -34 11 -54 -79 -70 -103 -18 -136 -38
-154 -94 -12 -38 -12 -50 0 -84 21 -60 61 -78 165 -73 95 4 140 25 166 77 22
43 25 240 5 280 -24 50 -137 79 -223 59z m136 -239 c0 -75 -73 -130 -125 -96
-25 17 -32 49 -16 75 8 13 87 39 124 40 11 1 17 -6 17 -19z"/>
<path d="M2723 1150 c-49 -11 -79 -35 -107 -83 -50 -85 -43 -200 16 -272 40
-48 82 -65 158 -65 122 0 191 67 198 192 10 169 -103 267 -265 228z m128 -109
c26 -26 29 -36 29 -91 0 -101 -30 -136 -111 -128 -66 6 -100 107 -65 192 27
64 97 76 147 27z"/>
</g>
</svg>
